<mxfile host="app.diagrams.net" modified="2021-03-24T20:54:57.068Z" agent="5.0 (Windows NT 10.0; Win64; x64) AppleWebKit/537.36 (KHTML, like Gecko) Chrome/89.0.4389.82 Safari/537.36" etag="EJaqtrAtIBHpzH4rAlwR" version="14.5.1" type="github">
  <diagram name="Anisble Intro" id="5348f1db-0dfa-24cf-5d06-2057accb5106">
    <mxGraphModel dx="1837" dy="1080" grid="0" gridSize="10" guides="1" tooltips="1" connect="1" arrows="1" fold="1" page="1" pageScale="1.5" pageWidth="826" pageHeight="1169" background="#ffffff" math="0" shadow="0">
      <root>
        <mxCell id="0" style=";html=1;" />
        <mxCell id="1" style=";html=1;" parent="0" />
        <mxCell id="55dd390204d0f602-3" value="&lt;br&gt;&lt;br&gt;" style="whiteSpace=wrap;html=1;rounded=0;shadow=0;dashed=0;strokeColor=none;strokeWidth=4;fillColor=#08585C;gradientColor=none;fontFamily=Helvetica;fontSize=100;fontColor=#FFFFFF;align=center;" parent="1" vertex="1">
          <mxGeometry x="200" y="280" width="880" height="930" as="geometry" />
        </mxCell>
        <mxCell id="55dd390204d0f602-1" value="Why Ansible" style="whiteSpace=wrap;html=1;rounded=0;shadow=0;dashed=0;strokeColor=none;strokeWidth=4;fillColor=#333333;gradientColor=none;fontFamily=Helvetica;fontSize=100;fontColor=#FFFFFF;align=center;" parent="1" vertex="1">
          <mxGeometry x="200" y="80" width="880" height="200" as="geometry" />
        </mxCell>
        <mxCell id="55dd390204d0f602-2" value="" style="ellipse;whiteSpace=wrap;html=1;rounded=0;shadow=0;dashed=0;strokeColor=#FEF15B;strokeWidth=4;fillColor=none;gradientColor=none;fontFamily=Helvetica;fontSize=100;fontColor=#FFFFFF;align=center;" parent="1" vertex="1">
          <mxGeometry x="260" y="330" width="200" height="200" as="geometry" />
        </mxCell>
        <mxCell id="55dd390204d0f602-5" value="" style="endArrow=none;html=1;dashed=1;dashPattern=1 1;labelBackgroundColor=none;strokeColor=#F49731;fontFamily=Helvetica;fontSize=100;fontColor=#FFFFFF;strokeWidth=16;" parent="1" edge="1">
          <mxGeometry width="50" height="50" relative="1" as="geometry">
            <mxPoint x="269.5882352941177" y="580" as="sourcePoint" />
            <mxPoint x="1029" y="580" as="targetPoint" />
          </mxGeometry>
        </mxCell>
        <mxCell id="55dd390204d0f602-6" value="IT Automation" style="whiteSpace=wrap;html=1;rounded=0;shadow=0;dashed=0;strokeColor=none;strokeWidth=4;fillColor=#F49731;gradientColor=none;fontFamily=Helvetica;fontSize=30;fontColor=#FFFFFF;align=center;fontStyle=1" parent="1" vertex="1">
          <mxGeometry x="660" y="320" width="240" height="60" as="geometry" />
        </mxCell>
        <mxCell id="55dd390204d0f602-9" value="" style="ellipse;whiteSpace=wrap;html=1;rounded=0;shadow=0;dashed=0;strokeColor=#FEF15B;strokeWidth=4;fillColor=none;gradientColor=none;fontFamily=Helvetica;fontSize=100;fontColor=#FFFFFF;align=center;" parent="1" vertex="1">
          <mxGeometry x="810" y="650" width="200" height="200" as="geometry" />
        </mxCell>
        <mxCell id="55dd390204d0f602-11" value="" style="endArrow=none;html=1;dashed=1;dashPattern=1 1;labelBackgroundColor=none;strokeColor=#F49731;fontFamily=Helvetica;fontSize=100;fontColor=#FFFFFF;strokeWidth=16;" parent="1" edge="1">
          <mxGeometry width="50" height="50" relative="1" as="geometry">
            <mxPoint x="269.58823529411757" y="900" as="sourcePoint" />
            <mxPoint x="1029" y="900" as="targetPoint" />
          </mxGeometry>
        </mxCell>
        <mxCell id="55dd390204d0f602-12" value="Configuration Management" style="whiteSpace=wrap;html=1;rounded=0;shadow=0;dashed=0;strokeColor=none;strokeWidth=4;fillColor=#F49731;gradientColor=none;fontFamily=Helvetica;fontSize=30;fontColor=#FFFFFF;align=center;fontStyle=1" parent="1" vertex="1">
          <mxGeometry x="290" y="640" width="470" height="60" as="geometry" />
        </mxCell>
        <mxCell id="55dd390204d0f602-13" value="&lt;ul&gt;&lt;li&gt;&lt;font color=&quot;#ffffff&quot;&gt;Instructions are written in a simple YAML/JSON format to perform Automation.&lt;/font&gt;&lt;/li&gt;&lt;li&gt;&lt;font color=&quot;#ffffff&quot;&gt;Run automated tasks on multiple remote hosts.&lt;/font&gt;&lt;/li&gt;&lt;li&gt;&lt;font color=&quot;#ffffff&quot;&gt;No extensive programming knowledge required.&lt;/font&gt;&lt;/li&gt;&lt;/ul&gt;" style="text;spacingTop=-5;fillColor=#ffffff;whiteSpace=wrap;html=1;align=left;fontSize=14;fontFamily=Verdana;fillColor=none;strokeColor=none;rounded=0;shadow=0;dashed=0;fontColor=#FEF15B;" parent="1" vertex="1">
          <mxGeometry x="470" y="390" width="600" height="80" as="geometry" />
        </mxCell>
        <mxCell id="55dd390204d0f602-14" value="" style="ellipse;whiteSpace=wrap;html=1;rounded=0;shadow=0;dashed=0;strokeColor=#FEF15B;strokeWidth=4;fillColor=none;gradientColor=none;fontFamily=Helvetica;fontSize=100;fontColor=#FFFFFF;align=center;" parent="1" vertex="1">
          <mxGeometry x="255" y="970" width="200" height="200" as="geometry" />
        </mxCell>
        <mxCell id="55dd390204d0f602-17" value="Agentless" style="whiteSpace=wrap;html=1;rounded=0;shadow=0;dashed=0;strokeColor=none;strokeWidth=4;fillColor=#F49731;gradientColor=none;fontFamily=Helvetica;fontSize=30;fontColor=#FFFFFF;align=center;fontStyle=1" parent="1" vertex="1">
          <mxGeometry x="655" y="960" width="240" height="60" as="geometry" />
        </mxCell>
        <mxCell id="NSPAl0I_jHwFWefvz-JO-1" value="" style="aspect=fixed;perimeter=ellipsePerimeter;html=1;align=center;shadow=0;dashed=0;fontColor=#4277BB;labelBackgroundColor=#ffffff;fontSize=12;spacingTop=3;image;image=img/lib/ibm/applications/automation_tools.svg;" vertex="1" parent="1">
          <mxGeometry x="295" y="365" width="130" height="130" as="geometry" />
        </mxCell>
        <mxCell id="NSPAl0I_jHwFWefvz-JO-3" value="&lt;ul&gt;&lt;li&gt;&lt;font color=&quot;#ffffff&quot;&gt;Keeps the environment / hosts in a consistent configuration.&lt;/font&gt;&lt;/li&gt;&lt;li&gt;&lt;font color=&quot;#ffffff&quot;&gt;Patch Management&lt;/font&gt;&lt;/li&gt;&lt;li&gt;&lt;font color=&quot;#ffffff&quot;&gt;Build and deployment of applications.&lt;/font&gt;&lt;/li&gt;&lt;li&gt;&lt;font color=&quot;#ffffff&quot;&gt;Security &amp;amp; compliance can be maintained with consistent configuration.&lt;/font&gt;&lt;/li&gt;&lt;/ul&gt;" style="text;spacingTop=-5;fillColor=#ffffff;whiteSpace=wrap;html=1;align=left;fontSize=14;fontFamily=Verdana;fillColor=none;strokeColor=none;rounded=0;shadow=0;dashed=0;fontColor=#FEF15B;" vertex="1" parent="1">
          <mxGeometry x="280" y="702.5" width="540" height="95" as="geometry" />
        </mxCell>
        <mxCell id="NSPAl0I_jHwFWefvz-JO-4" value="" style="points=[[0,0,0],[0.25,0,0],[0.5,0,0],[0.75,0,0],[1,0,0],[0,1,0],[0.25,1,0],[0.5,1,0],[0.75,1,0],[1,1,0],[0,0.25,0],[0,0.5,0],[0,0.75,0],[1,0.25,0],[1,0.5,0],[1,0.75,0]];points=[[0,0,0],[0.25,0,0],[0.5,0,0],[0.75,0,0],[1,0,0],[0,1,0],[0.25,1,0],[0.5,1,0],[0.75,1,0],[1,1,0],[0,0.25,0],[0,0.5,0],[0,0.75,0],[1,0.25,0],[1,0.5,0],[1,0.75,0]];outlineConnect=0;fontColor=#232F3E;gradientColor=#F34482;gradientDirection=north;fillColor=#BC1356;strokeColor=#ffffff;dashed=0;verticalLabelPosition=bottom;verticalAlign=top;align=center;html=1;fontSize=12;fontStyle=0;aspect=fixed;shape=mxgraph.aws4.resourceIcon;resIcon=mxgraph.aws4.config;" vertex="1" parent="1">
          <mxGeometry x="847.5" y="685" width="125" height="125" as="geometry" />
        </mxCell>
        <mxCell id="NSPAl0I_jHwFWefvz-JO-5" value="&lt;ul&gt;&lt;li&gt;&lt;font color=&quot;#ffffff&quot;&gt;Ansible host can communicate with remote hosts without an Agent.&lt;/font&gt;&lt;/li&gt;&lt;li&gt;&lt;font color=&quot;#ffffff&quot;&gt;Push based mechanism&lt;/font&gt;&lt;/li&gt;&lt;li&gt;&lt;font color=&quot;#ffffff&quot;&gt;Uses OpenSSH and WinRM&lt;/font&gt;&lt;/li&gt;&lt;/ul&gt;" style="text;spacingTop=-5;fillColor=#ffffff;whiteSpace=wrap;html=1;align=left;fontSize=14;fontFamily=Verdana;fillColor=none;strokeColor=none;rounded=0;shadow=0;dashed=0;fontColor=#FEF15B;" vertex="1" parent="1">
          <mxGeometry x="507.5" y="1030" width="535" height="95" as="geometry" />
        </mxCell>
        <mxCell id="NSPAl0I_jHwFWefvz-JO-6" value="" style="aspect=fixed;html=1;points=[];align=center;image;fontSize=12;image=img/lib/azure2/blockchain/Outbound_Connection.svg;" vertex="1" parent="1">
          <mxGeometry x="300" y="1020" width="110.94" height="100" as="geometry" />
        </mxCell>
        <mxCell id="NSPAl0I_jHwFWefvz-JO-7" style="edgeStyle=orthogonalEdgeStyle;rounded=0;orthogonalLoop=1;jettySize=auto;html=1;exitX=0.5;exitY=1;exitDx=0;exitDy=0;fontFamily=Verdana;" edge="1" parent="1" source="55dd390204d0f602-3" target="55dd390204d0f602-3">
          <mxGeometry relative="1" as="geometry" />
        </mxCell>
        <mxCell id="NSPAl0I_jHwFWefvz-JO-8" style="edgeStyle=orthogonalEdgeStyle;rounded=0;orthogonalLoop=1;jettySize=auto;html=1;exitX=0.5;exitY=1;exitDx=0;exitDy=0;fontFamily=Verdana;" edge="1" parent="1" source="55dd390204d0f602-3" target="55dd390204d0f602-3">
          <mxGeometry relative="1" as="geometry" />
        </mxCell>
      </root>
    </mxGraphModel>
  </diagram>
</mxfile>
